# This file uses centimeters as units for non-parametric coordinates.

mtllib Bomb.mtl
g default
v -0.093363 0.742229 0.093363
v 0.093363 0.742229 0.093363
v -0.093363 0.992229 0.093363
v 0.093363 0.992229 0.093363
v -0.093363 1.242229 0.093363
v 0.093363 1.242229 0.093363
v -0.142527 1.472025 0.093363
v 0.039775 1.512433 0.093363
v -0.293435 1.701364 0.093363
v -0.125544 1.783093 0.093363
v -0.293435 1.701364 -0.093363
v -0.125544 1.783093 -0.093363
v -0.142527 1.472025 -0.093363
v 0.039775 1.512433 -0.093363
v -0.093363 1.242229 -0.093363
v 0.093363 1.242229 -0.093363
v -0.093363 0.992229 -0.093363
v 0.093363 0.992229 -0.093363
v -0.093363 0.742229 -0.093363
v 0.093363 0.742229 -0.093363
v -0.396612 0.095715 0.396612
v 0.000000 0.005915 0.486412
v 0.396612 0.095715 0.396612
v -0.486412 0.492327 0.486412
v 0.000000 0.492327 0.618024
v 0.486412 0.492327 0.486412
v -0.396612 0.888939 0.396612
v 0.000000 0.978739 0.486412
v 0.396612 0.888939 0.396612
v -0.486412 0.978739 0.000000
v 0.000000 1.110351 0.000000
v 0.486412 0.978739 0.000000
v -0.396612 0.888939 -0.396612
v 0.000000 0.978739 -0.486412
v 0.396612 0.888939 -0.396612
v -0.486412 0.492327 -0.486412
v 0.000000 0.492327 -0.618024
v 0.486412 0.492327 -0.486412
v -0.396612 0.095715 -0.396612
v 0.000000 0.005915 -0.486412
v 0.396612 0.095715 -0.396612
v -0.486412 0.005915 0.000000
v 0.000000 -0.125696 0.000000
v 0.486412 0.005915 0.000000
v 0.618024 0.492327 0.000000
v -0.618024 0.492327 0.000000
vt 0.375000 0.000000
vt 0.625000 0.000000
vt 0.375000 0.062500
vt 0.625000 0.062500
vt 0.375000 0.125000
vt 0.625000 0.125000
vt 0.375000 0.187500
vt 0.625000 0.187500
vt 0.375000 0.250000
vt 0.625000 0.250000
vt 0.375000 0.500000
vt 0.625000 0.500000
vt 0.375000 0.562500
vt 0.625000 0.562500
vt 0.375000 0.625000
vt 0.625000 0.625000
vt 0.375000 0.687500
vt 0.625000 0.687500
vt 0.375000 0.750000
vt 0.625000 0.750000
vt 0.375000 1.000000
vt 0.625000 1.000000
vt 0.875000 0.000000
vt 0.875000 0.062500
vt 0.875000 0.125000
vt 0.875000 0.187500
vt 0.875000 0.250000
vt 0.125000 0.000000
vt 0.125000 0.062500
vt 0.125000 0.125000
vt 0.125000 0.187500
vt 0.125000 0.250000
vt 0.375000 0.000000
vt 0.500000 0.000000
vt 0.500000 0.125000
vt 0.375000 0.125000
vt 0.625000 0.000000
vt 0.625000 0.125000
vt 0.500000 0.250000
vt 0.375000 0.250000
vt 0.625000 0.250000
vt 0.500000 0.375000
vt 0.375000 0.375000
vt 0.625000 0.375000
vt 0.500000 0.500000
vt 0.375000 0.500000
vt 0.625000 0.500000
vt 0.500000 0.625000
vt 0.375000 0.625000
vt 0.625000 0.625000
vt 0.500000 0.750000
vt 0.375000 0.750000
vt 0.625000 0.750000
vt 0.500000 0.875000
vt 0.375000 0.875000
vt 0.625000 0.875000
vt 0.500000 1.000000
vt 0.375000 1.000000
vt 0.625000 1.000000
vt 0.750000 0.000000
vt 0.875000 0.000000
vt 0.875000 0.125000
vt 0.750000 0.125000
vt 0.875000 0.250000
vt 0.750000 0.250000
vt 0.125000 0.000000
vt 0.250000 0.000000
vt 0.250000 0.125000
vt 0.125000 0.125000
vt 0.250000 0.250000
vt 0.125000 0.250000
vn 0.000000 0.000000 1.000000
vn 0.000000 0.000000 1.000000
vn 0.000000 0.000000 1.000000
vn 0.000000 0.000000 1.000000
vn 0.000000 0.000000 1.000000
vn 0.000000 0.000000 1.000000
vn 0.000000 0.000000 1.000000
vn 0.000000 0.000000 1.000000
vn 0.000000 0.000000 1.000000
vn 0.000000 0.000000 1.000000
vn -0.437693 0.899124 0.000000
vn -0.437693 0.899124 0.000000
vn -0.437693 0.899124 0.000000
vn -0.437693 0.899124 0.000000
vn 0.000000 0.000000 -1.000000
vn 0.000000 0.000000 -1.000000
vn 0.000000 0.000000 -1.000000
vn 0.000000 0.000000 -1.000000
vn 0.000000 0.000000 -1.000000
vn 0.000000 0.000000 -1.000000
vn 0.000000 0.000000 -1.000000
vn 0.000000 0.000000 -1.000000
vn 0.000000 0.000000 -1.000000
vn 0.000000 0.000000 -1.000000
vn 0.000000 -1.000000 0.000000
vn 0.000000 -1.000000 0.000000
vn 0.000000 -1.000000 0.000000
vn 0.000000 -1.000000 0.000000
vn 1.000000 0.000000 0.000000
vn 1.000000 0.000000 0.000000
vn 1.000000 0.000000 0.000000
vn 1.000000 0.000000 0.000000
vn 0.994736 0.102472 0.000000
vn 0.994736 0.102472 0.000000
vn 0.926955 0.375173 0.000000
vn 0.926955 0.375173 0.000000
vn 0.853400 0.521256 0.000000
vn 0.853400 0.521256 0.000000
vn -1.000000 0.000000 0.000000
vn -1.000000 0.000000 0.000000
vn -1.000000 0.000000 0.000000
vn -1.000000 0.000000 0.000000
vn -0.994791 -0.101935 0.000000
vn -0.994791 -0.101935 0.000000
vn -0.916743 -0.399477 0.000000
vn -0.916743 -0.399477 0.000000
vn -0.835373 -0.549684 0.000000
vn -0.835373 -0.549684 0.000000
vn -0.259632 -0.259632 0.930152
vn 0.000000 -0.268852 0.963182
vn 0.000000 0.000000 1.000000
vn -0.268852 0.000000 0.963182
vn 0.259632 -0.259632 0.930152
vn 0.268852 0.000000 0.963182
vn 0.000000 0.268852 0.963182
vn -0.259632 0.259632 0.930152
vn 0.259632 0.259632 0.930152
vn -0.259632 0.930152 0.259632
vn 0.000000 0.963182 0.268852
vn 0.000000 1.000000 0.000000
vn -0.268852 0.963182 0.000000
vn 0.259632 0.930152 0.259632
vn 0.268852 0.963182 0.000000
vn 0.000000 0.963182 -0.268852
vn -0.259632 0.930152 -0.259632
vn 0.259632 0.930152 -0.259632
vn -0.259632 0.259632 -0.930152
vn 0.000000 0.268852 -0.963182
vn 0.000000 0.000000 -1.000000
vn -0.268852 0.000000 -0.963182
vn 0.259632 0.259632 -0.930152
vn 0.268852 0.000000 -0.963182
vn 0.000000 -0.268852 -0.963182
vn -0.259632 -0.259632 -0.930152
vn 0.259632 -0.259632 -0.930152
vn -0.259632 -0.930152 -0.259632
vn 0.000000 -0.963182 -0.268852
vn 0.000000 -1.000000 0.000000
vn -0.268852 -0.963182 0.000000
vn 0.259632 -0.930152 -0.259632
vn 0.268852 -0.963182 0.000000
vn 0.000000 -0.963182 0.268852
vn -0.259632 -0.930152 0.259632
vn 0.259632 -0.930152 0.259632
vn 0.963182 -0.268852 0.000000
vn 0.930152 -0.259632 -0.259632
vn 0.963182 0.000000 -0.268852
vn 1.000000 0.000000 0.000000
vn 0.930152 -0.259632 0.259632
vn 0.963182 0.000000 0.268852
vn 0.930152 0.259632 -0.259632
vn 0.963182 0.268852 0.000000
vn 0.930152 0.259632 0.259632
vn -0.930152 -0.259632 -0.259632
vn -0.963182 -0.268852 0.000000
vn -1.000000 0.000000 -0.000000
vn -0.963182 0.000000 -0.268852
vn -0.930152 -0.259632 0.259632
vn -0.963182 0.000000 0.268852
vn -0.963182 0.268852 -0.000000
vn -0.930152 0.259632 -0.259632
vn -0.930152 0.259632 0.259632
s 1
g pCube3
usemtl initialShadingGroup
f 1/1/1 2/2/2 4/4/3 3/3/4
f 3/3/4 4/4/3 6/6/5 5/5/6
f 5/5/6 6/6/5 8/8/7 7/7/8
f 7/7/8 8/8/7 10/10/9 9/9/10
s off
f 9/9/11 10/10/12 12/12/13 11/11/14
s 2
f 11/11/15 12/12/16 14/14/17 13/13/18
f 13/13/18 14/14/17 16/16/19 15/15/20
f 15/15/20 16/16/19 18/18/21 17/17/22
f 17/17/22 18/18/21 20/20/23 19/19/24
s off
f 19/19/25 20/20/26 2/22/27 1/21/28
s 3
f 2/2/29 20/23/30 18/24/31 4/4/32
f 4/4/32 18/24/31 16/25/33 6/6/34
f 6/6/34 16/25/33 14/26/35 8/8/36
f 8/8/36 14/26/35 12/27/37 10/10/38
s 4
f 19/28/39 1/1/40 3/3/41 17/29/42
f 17/29/42 3/3/41 5/5/43 15/30/44
f 15/30/44 5/5/43 7/7/45 13/31/46
f 13/31/46 7/7/45 9/9/47 11/32/48
s 5
f 21/33/49 22/34/50 25/35/51 24/36/52
f 22/34/50 23/37/53 26/38/54 25/35/51
f 24/36/52 25/35/51 28/39/55 27/40/56
f 25/35/51 26/38/54 29/41/57 28/39/55
s 6
f 27/40/58 28/39/59 31/42/60 30/43/61
f 28/39/59 29/41/62 32/44/63 31/42/60
f 30/43/61 31/42/60 34/45/64 33/46/65
f 31/42/60 32/44/63 35/47/66 34/45/64
s 7
f 33/46/67 34/45/68 37/48/69 36/49/70
f 34/45/68 35/47/71 38/50/72 37/48/69
f 36/49/70 37/48/69 40/51/73 39/52/74
f 37/48/69 38/50/72 41/53/75 40/51/73
s 8
f 39/52/76 40/51/77 43/54/78 42/55/79
f 40/51/77 41/53/80 44/56/81 43/54/78
f 42/55/79 43/54/78 22/57/82 21/58/83
f 43/54/78 44/56/81 23/59/84 22/57/82
s 9
f 44/60/85 41/61/86 38/62/87 45/63/88
f 23/37/89 44/60/85 45/63/88 26/38/90
f 45/63/88 38/62/87 35/64/91 32/65/92
f 26/38/90 45/63/88 32/65/92 29/41/93
s 10
f 39/66/94 42/67/95 46/68/96 36/69/97
f 42/67/95 21/33/98 24/36/99 46/68/96
f 36/69/97 46/68/96 30/70/100 33/71/101
f 46/68/96 24/36/99 27/40/102 30/70/100
